<?xml version="1.0" standalone="no"?>
<!DOCTYPE svg PUBLIC "-//W3C//DTD SVG 20010904//EN"
 "http://www.w3.org/TR/2001/REC-SVG-20010904/DTD/svg10.dtd">
<svg version="1.0" xmlns="http://www.w3.org/2000/svg"
 width="600.000000pt" height="600.000000pt" viewBox="0 0 600.000000 600.000000"
 preserveAspectRatio="xMidYMid meet">
<metadata>
Created by potrace 1.11, written by Peter Selinger 2001-2013
</metadata>
<g transform="translate(0.000000,600.000000) scale(0.100000,-0.100000)"
fill="#000000" stroke="none">
<path d="M2828 5986 c-1 -2 -34 -6 -73 -10 -38 -3 -95 -11 -125 -16 -30 -5
-71 -12 -90 -15 -141 -24 -362 -89 -534 -157 -635 -252 -1204 -763 -1578
-1418 -64 -112 -277 -535 -310 -615 -40 -98 -56 -167 -92 -377 -28 -164 -28
-524 0 -733 56 -423 269 -1054 445 -1320 143 -217 423 -512 629 -665 18 -14
45 -34 59 -46 45 -36 222 -149 321 -204 169 -94 393 -194 590 -262 86 -30 294
-87 340 -93 14 -2 64 -11 111 -19 47 -8 119 -18 160 -23 98 -10 444 -10 539 0
101 10 310 36 335 41 11 2 43 7 70 10 300 39 452 85 710 211 419 206 750 478
1041 855 109 141 220 320 304 490 81 162 185 433 205 530 2 8 14 60 28 115 59
235 82 427 81 685 -1 206 -17 363 -55 530 -6 25 -12 53 -14 62 -42 201 -188
566 -312 776 -24 41 -43 75 -43 78 0 13 -194 288 -271 384 -184 230 -415 453
-632 612 -29 20 -57 42 -63 47 -24 20 -197 132 -251 162 -151 83 -205 111
-301 154 -144 63 -401 151 -496 169 -12 2 -59 11 -106 20 -158 31 -234 38
-427 41 -105 2 -193 2 -195 1z"/>
</g>
</svg>
