<?xml version="1.0" encoding="UTF-8" standalone="no"?>
<!DOCTYPE svg PUBLIC "-//W3C//DTD SVG 1.1//EN"
 "http://www.w3.org/Graphics/SVG/1.1/DTD/svg11.dtd">
<!-- Generated by graphviz version 2.40.1 (20161225.0304)
 -->
<!-- Title: dependency&#45;cruiser output Pages: 1 -->
<svg width="485pt" height="851pt" viewBox="0.00 0.00 484.55 851.00" 
    xmlns="http://www.w3.org/2000/svg" 
    xmlns:xlink="http://www.w3.org/1999/xlink">
    <g id="graph0" class="graph" transform="scale(1 1) rotate(0) translate(4 847)">
        <title>dependency&#45;cruiser output</title>
        <polygon fill="#ffffff" stroke="transparent" points="-4,4 -4,-847 480.5529,-847 480.5529,4 -4,4"/>
        <g id="clust1" class="cluster">
            <title>cluster_src</title>
            <path fill="#ffffff" stroke="#000000" stroke-width="2" d="M20,-8C20,-8 456.5529,-8 456.5529,-8 462.5529,-8 468.5529,-14 468.5529,-20 468.5529,-20 468.5529,-823 468.5529,-823 468.5529,-829 462.5529,-835 456.5529,-835 456.5529,-835 20,-835 20,-835 14,-835 8,-829 8,-823 8,-823 8,-20 8,-20 8,-14 14,-8 20,-8"/>
            <text text-anchor="middle" x="238.2765" y="-822.9" font-family="Helvetica,sans-Serif" font-weight="bold" font-size="9.00" fill="#000000">src</text>
        </g>
        <g id="clust2" class="cluster">
            <title>cluster_src/__tests__</title>
            <path fill="#ffffff" stroke="#000000" stroke-width="2" d="M28,-104C28,-104 150.525,-104 150.525,-104 156.525,-104 162.525,-110 162.525,-116 162.525,-116 162.525,-796 162.525,-796 162.525,-802 156.525,-808 150.525,-808 150.525,-808 28,-808 28,-808 22,-808 16,-802 16,-796 16,-796 16,-116 16,-116 16,-110 22,-104 28,-104"/>
            <text text-anchor="middle" x="89.2625" y="-795.9" font-family="Helvetica,sans-Serif" font-weight="bold" font-size="9.00" fill="#000000">__tests__</text>
        </g>
        <!-- src/App.js -->
        <g id="node1" class="node">
            <title>src/App.js</title>
            <g id="a_node1">
                <a xlink:href="src/App.js" xlink:title="App.js">
                    <path fill="#ffffcc" stroke="#000000" d="M110.0618,-96.3011C110.0618,-96.3011 68.4632,-96.3011 68.4632,-96.3011 65.3629,-96.3011 62.2625,-93.2007 62.2625,-90.1004 62.2625,-90.1004 62.2625,-83.8996 62.2625,-83.8996 62.2625,-80.7993 65.3629,-77.6989 68.4632,-77.6989 68.4632,-77.6989 110.0618,-77.6989 110.0618,-77.6989 113.1621,-77.6989 116.2625,-80.7993 116.2625,-83.8996 116.2625,-83.8996 116.2625,-90.1004 116.2625,-90.1004 116.2625,-93.2007 113.1621,-96.3011 110.0618,-96.3011"/>
                    <text text-anchor="middle" x="89.2625" y="-84.3" font-family="Helvetica,sans-Serif" font-size="9.00" fill="#000000">App.js</text>
                </a>
            </g>
        </g>
        <!-- src/Clock.js -->
        <g id="node2" class="node">
            <title>src/Clock.js</title>
            <g id="a_node2">
                <a xlink:href="src/Clock.js" xlink:title="Clock.js">
                    <path fill="#ffffcc" stroke="#000000" d="M248.0836,-188.3011C248.0836,-188.3011 206.485,-188.3011 206.485,-188.3011 203.3847,-188.3011 200.2843,-185.2007 200.2843,-182.1004 200.2843,-182.1004 200.2843,-175.8996 200.2843,-175.8996 200.2843,-172.7993 203.3847,-169.6989 206.485,-169.6989 206.485,-169.6989 248.0836,-169.6989 248.0836,-169.6989 251.1839,-169.6989 254.2843,-172.7993 254.2843,-175.8996 254.2843,-175.8996 254.2843,-182.1004 254.2843,-182.1004 254.2843,-185.2007 251.1839,-188.3011 248.0836,-188.3011"/>
                    <text text-anchor="middle" x="227.2843" y="-176.3" font-family="Helvetica,sans-Serif" font-size="9.00" fill="#000000">Clock.js</text>
                </a>
            </g>
        </g>
        <!-- src/App.js&#45;&gt;src/Clock.js -->
        <g id="edge1" class="edge">
            <title>src/App.js&#45;&gt;src/Clock.js</title>
            <path fill="none" stroke="#000000" stroke-width="2" stroke-opacity="0.466667" d="M116.29,-84.9188C131.9864,-85.2712 150.8982,-88.6476 162.525,-101 181.5681,-121.2314 152.3686,-141.9692 170.525,-163 175.6421,-168.9272 182.768,-172.7409 190.2456,-175.1749"/>
            <polygon fill="#000000" fill-opacity="0.466667" stroke="#000000" stroke-width="2" stroke-opacity="0.466667" points="189.5892,-178.6184 200.1389,-177.6416 191.2827,-171.8263 189.5892,-178.6184"/>
        </g>
        <!-- src/DangerDeleteUser.js -->
        <g id="node3" class="node">
            <title>src/DangerDeleteUser.js</title>
            <g id="a_node3">
                <a xlink:href="src/DangerDeleteUser.js" xlink:title="DangerDeleteUser.js">
                    <path fill="#ffffcc" stroke="#000000" d="M270.5895,-294.3011C270.5895,-294.3011 183.9791,-294.3011 183.9791,-294.3011 180.8787,-294.3011 177.7784,-291.2007 177.7784,-288.1004 177.7784,-288.1004 177.7784,-281.8996 177.7784,-281.8996 177.7784,-278.7993 180.8787,-275.6989 183.9791,-275.6989 183.9791,-275.6989 270.5895,-275.6989 270.5895,-275.6989 273.6899,-275.6989 276.7902,-278.7993 276.7902,-281.8996 276.7902,-281.8996 276.7902,-288.1004 276.7902,-288.1004 276.7902,-291.2007 273.6899,-294.3011 270.5895,-294.3011"/>
                    <text text-anchor="middle" x="227.2843" y="-282.3" font-family="Helvetica,sans-Serif" font-size="9.00" fill="#000000">DangerDeleteUser.js</text>
                </a>
            </g>
        </g>
        <!-- src/App.js&#45;&gt;src/DangerDeleteUser.js -->
        <g id="edge2" class="edge">
            <title>src/App.js&#45;&gt;src/DangerDeleteUser.js</title>
            <path fill="none" stroke="#000000" stroke-width="2" stroke-opacity="0.466667" d="M116.2888,-84.5879C132.1896,-84.775 151.3176,-88.0939 162.525,-101 174.6325,-114.9426 159.2628,-252.3661 170.525,-267 171.1181,-267.7706 171.7442,-268.5089 172.4001,-269.2162"/>
            <polygon fill="#000000" fill-opacity="0.466667" stroke="#000000" stroke-width="2" stroke-opacity="0.466667" points="170.4361,-272.1281 180.4217,-275.6691 174.8237,-266.6739 170.4361,-272.1281"/>
        </g>
        <!-- src/DataDownload.js -->
        <g id="node4" class="node">
            <title>src/DataDownload.js</title>
            <g id="a_node4">
                <a xlink:href="src/DataDownload.js" xlink:title="DataDownload.js">
                    <path fill="#ffffcc" stroke="#000000" d="M263.093,-325.3011C263.093,-325.3011 191.4756,-325.3011 191.4756,-325.3011 188.3753,-325.3011 185.2749,-322.2007 185.2749,-319.1004 185.2749,-319.1004 185.2749,-312.8996 185.2749,-312.8996 185.2749,-309.7993 188.3753,-306.6989 191.4756,-306.6989 191.4756,-306.6989 263.093,-306.6989 263.093,-306.6989 266.1933,-306.6989 269.2937,-309.7993 269.2937,-312.8996 269.2937,-312.8996 269.2937,-319.1004 269.2937,-319.1004 269.2937,-322.2007 266.1933,-325.3011 263.093,-325.3011"/>
                    <text text-anchor="middle" x="227.2843" y="-313.3" font-family="Helvetica,sans-Serif" font-size="9.00" fill="#000000">DataDownload.js</text>
                </a>
            </g>
        </g>
        <!-- src/App.js&#45;&gt;src/DataDownload.js -->
        <g id="edge3" class="edge">
            <title>src/App.js&#45;&gt;src/DataDownload.js</title>
            <path fill="none" stroke="#000000" stroke-width="2" stroke-opacity="0.466667" d="M116.3251,-84.5565C132.2395,-84.7318 151.3691,-88.0493 162.525,-101 176.9675,-117.7662 156.8161,-282.6288 170.525,-300 172.1899,-302.1097 174.1102,-303.9549 176.2159,-305.5678"/>
            <polygon fill="#000000" fill-opacity="0.466667" stroke="#000000" stroke-width="2" stroke-opacity="0.466667" points="174.6994,-308.7337 185.1093,-310.7046 178.2005,-302.6722 174.6994,-308.7337"/>
        </g>
        <!-- src/Firebase.js -->
        <g id="node6" class="node">
            <title>src/Firebase.js</title>
            <g id="a_node6">
                <a xlink:href="src/Firebase.js" xlink:title="Firebase.js">
                    <path fill="#ffffcc" stroke="#000000" d="M454.3531,-203.3011C454.3531,-203.3011 406.7508,-203.3011 406.7508,-203.3011 403.6504,-203.3011 400.55,-200.2007 400.55,-197.1004 400.55,-197.1004 400.55,-190.8996 400.55,-190.8996 400.55,-187.7993 403.6504,-184.6989 406.7508,-184.6989 406.7508,-184.6989 454.3531,-184.6989 454.3531,-184.6989 457.4535,-184.6989 460.5539,-187.7993 460.5539,-190.8996 460.5539,-190.8996 460.5539,-197.1004 460.5539,-197.1004 460.5539,-200.2007 457.4535,-203.3011 454.3531,-203.3011"/>
                    <text text-anchor="middle" x="430.552" y="-191.3" font-family="Helvetica,sans-Serif" font-size="9.00" fill="#000000">Firebase.js</text>
                </a>
            </g>
        </g>
        <!-- src/App.js&#45;&gt;src/Firebase.js -->
        <g id="edge4" class="edge">
            <title>src/App.js&#45;&gt;src/Firebase.js</title>
            <path fill="none" stroke="#000000" stroke-width="2" stroke-opacity="0.466667" d="M116.3822,-87.5358C131.717,-86.4074 150.2238,-82.434 162.525,-71 171.6921,-62.4791 160.4965,-51.4881 170.525,-44 247.8949,13.7703 312.7471,7.0564 387.551,-54 406.3916,-69.378 421.086,-139.9478 427.3104,-174.6379"/>
            <polygon fill="#000000" fill-opacity="0.466667" stroke="#000000" stroke-width="2" stroke-opacity="0.466667" points="423.8679,-175.2715 429.0282,-184.5248 430.7646,-174.0732 423.8679,-175.2715"/>
        </g>
        <!-- src/HistoryGrid.js -->
        <g id="node8" class="node">
            <title>src/HistoryGrid.js</title>
            <g id="a_node8">
                <a xlink:href="src/HistoryGrid.js" xlink:title="HistoryGrid.js">
                    <path fill="#ffffcc" stroke="#000000" d="M256.0737,-99.3011C256.0737,-99.3011 198.4949,-99.3011 198.4949,-99.3011 195.3946,-99.3011 192.2942,-96.2007 192.2942,-93.1004 192.2942,-93.1004 192.2942,-86.8996 192.2942,-86.8996 192.2942,-83.7993 195.3946,-80.6989 198.4949,-80.6989 198.4949,-80.6989 256.0737,-80.6989 256.0737,-80.6989 259.174,-80.6989 262.2744,-83.7993 262.2744,-86.8996 262.2744,-86.8996 262.2744,-93.1004 262.2744,-93.1004 262.2744,-96.2007 259.174,-99.3011 256.0737,-99.3011"/>
                    <text text-anchor="middle" x="227.2843" y="-87.3" font-family="Helvetica,sans-Serif" font-size="9.00" fill="#000000">HistoryGrid.js</text>
                </a>
            </g>
        </g>
        <!-- src/App.js&#45;&gt;src/HistoryGrid.js -->
        <g id="edge5" class="edge">
            <title>src/App.js&#45;&gt;src/HistoryGrid.js</title>
            <path fill="none" stroke="#000000" stroke-width="2" stroke-opacity="0.466667" d="M116.5312,-87.5927C135.1651,-87.9977 160.3028,-88.5441 181.9195,-89.014"/>
            <polygon fill="#000000" fill-opacity="0.466667" stroke="#000000" stroke-width="2" stroke-opacity="0.466667" points="182.1309,-92.5193 192.2046,-89.2375 182.283,-85.5209 182.1309,-92.5193"/>
        </g>
        <!-- src/InterruptionCounter.js -->
        <g id="node9" class="node">
            <title>src/InterruptionCounter.js</title>
            <g id="a_node9">
                <a xlink:href="src/InterruptionCounter.js" xlink:title="InterruptionCounter.js">
                    <path fill="#ffffcc" stroke="#000000" d="M272.1008,-157.3011C272.1008,-157.3011 182.4678,-157.3011 182.4678,-157.3011 179.3674,-157.3011 176.2671,-154.2007 176.2671,-151.1004 176.2671,-151.1004 176.2671,-144.8996 176.2671,-144.8996 176.2671,-141.7993 179.3674,-138.6989 182.4678,-138.6989 182.4678,-138.6989 272.1008,-138.6989 272.1008,-138.6989 275.2012,-138.6989 278.3015,-141.7993 278.3015,-144.8996 278.3015,-144.8996 278.3015,-151.1004 278.3015,-151.1004 278.3015,-154.2007 275.2012,-157.3011 272.1008,-157.3011"/>
                    <text text-anchor="middle" x="227.2843" y="-145.3" font-family="Helvetica,sans-Serif" font-size="9.00" fill="#000000">InterruptionCounter.js</text>
                </a>
            </g>
        </g>
        <!-- src/App.js&#45;&gt;src/InterruptionCounter.js -->
        <g id="edge6" class="edge">
            <title>src/App.js&#45;&gt;src/InterruptionCounter.js</title>
            <path fill="none" stroke="#000000" stroke-width="2" stroke-opacity="0.466667" d="M116.4002,-85.5542C131.7411,-86.2056 150.2481,-89.672 162.525,-101 172.3513,-110.0669 161.2517,-120.3682 170.525,-130 171.5781,-131.0938 172.6972,-132.1213 173.8712,-133.0866"/>
            <polygon fill="#000000" fill-opacity="0.466667" stroke="#000000" stroke-width="2" stroke-opacity="0.466667" points="172.0148,-136.0545 182.3002,-138.5962 175.8447,-130.1952 172.0148,-136.0545"/>
        </g>
        <!-- src/Login.js -->
        <g id="node10" class="node">
            <title>src/Login.js</title>
            <g id="a_node10">
                <a xlink:href="src/Login.js" xlink:title="Login.js">
                    <path fill="#ffffcc" stroke="#000000" d="M248.0836,-219.3011C248.0836,-219.3011 206.485,-219.3011 206.485,-219.3011 203.3847,-219.3011 200.2843,-216.2007 200.2843,-213.1004 200.2843,-213.1004 200.2843,-206.8996 200.2843,-206.8996 200.2843,-203.7993 203.3847,-200.6989 206.485,-200.6989 206.485,-200.6989 248.0836,-200.6989 248.0836,-200.6989 251.1839,-200.6989 254.2843,-203.7993 254.2843,-206.8996 254.2843,-206.8996 254.2843,-213.1004 254.2843,-213.1004 254.2843,-216.2007 251.1839,-219.3011 248.0836,-219.3011"/>
                    <text text-anchor="middle" x="227.2843" y="-207.3" font-family="Helvetica,sans-Serif" font-size="9.00" fill="#000000">Login.js</text>
                </a>
            </g>
        </g>
        <!-- src/App.js&#45;&gt;src/Login.js -->
        <g id="edge7" class="edge">
            <title>src/App.js&#45;&gt;src/Login.js</title>
            <path fill="none" stroke="#000000" stroke-width="2" stroke-opacity="0.466667" d="M116.4797,-84.7441C132.2454,-85.0325 151.1633,-88.4033 162.525,-101 176.418,-116.4032 157.3066,-178.0142 170.525,-194 175.6169,-200.1579 182.8797,-204.0483 190.5163,-206.4813"/>
            <polygon fill="#000000" fill-opacity="0.466667" stroke="#000000" stroke-width="2" stroke-opacity="0.466667" points="189.7106,-209.8873 200.254,-208.8447 191.3617,-203.0848 189.7106,-209.8873"/>
        </g>
        <!-- src/PostTimerReport.js -->
        <g id="node13" class="node">
            <title>src/PostTimerReport.js</title>
            <g id="a_node13">
                <a xlink:href="src/PostTimerReport.js" xlink:title="PostTimerReport.js">
                    <path fill="#ffffcc" stroke="#000000" d="M267.5822,-250.3011C267.5822,-250.3011 186.9864,-250.3011 186.9864,-250.3011 183.8861,-250.3011 180.7857,-247.2007 180.7857,-244.1004 180.7857,-244.1004 180.7857,-237.8996 180.7857,-237.8996 180.7857,-234.7993 183.8861,-231.6989 186.9864,-231.6989 186.9864,-231.6989 267.5822,-231.6989 267.5822,-231.6989 270.6825,-231.6989 273.7829,-234.7993 273.7829,-237.8996 273.7829,-237.8996 273.7829,-244.1004 273.7829,-244.1004 273.7829,-247.2007 270.6825,-250.3011 267.5822,-250.3011"/>
                    <text text-anchor="middle" x="227.2843" y="-238.3" font-family="Helvetica,sans-Serif" font-size="9.00" fill="#000000">PostTimerReport.js</text>
                </a>
            </g>
        </g>
        <!-- src/App.js&#45;&gt;src/PostTimerReport.js -->
        <g id="edge8" class="edge">
            <title>src/App.js&#45;&gt;src/PostTimerReport.js</title>
            <path fill="none" stroke="#000000" stroke-width="2" stroke-opacity="0.466667" d="M116.5765,-84.6577C132.3775,-84.9146 151.2987,-88.2825 162.525,-101 180.7989,-121.7011 153.1573,-203.533 170.525,-225 171.1307,-225.7487 171.7685,-226.4639 172.4353,-227.1472"/>
            <polygon fill="#000000" fill-opacity="0.466667" stroke="#000000" stroke-width="2" stroke-opacity="0.466667" points="170.463,-230.0444 180.5418,-233.3106 174.6997,-224.4721 170.463,-230.0444"/>
        </g>
        <!-- src/ProfileEditor.js -->
        <g id="node14" class="node">
            <title>src/ProfileEditor.js</title>
            <g id="a_node14">
                <a xlink:href="src/ProfileEditor.js" xlink:title="ProfileEditor.js">
                    <path fill="#ffffcc" stroke="#000000" d="M258.0841,-356.3011C258.0841,-356.3011 196.4845,-356.3011 196.4845,-356.3011 193.3842,-356.3011 190.2838,-353.2007 190.2838,-350.1004 190.2838,-350.1004 190.2838,-343.8996 190.2838,-343.8996 190.2838,-340.7993 193.3842,-337.6989 196.4845,-337.6989 196.4845,-337.6989 258.0841,-337.6989 258.0841,-337.6989 261.1844,-337.6989 264.2848,-340.7993 264.2848,-343.8996 264.2848,-343.8996 264.2848,-350.1004 264.2848,-350.1004 264.2848,-353.2007 261.1844,-356.3011 258.0841,-356.3011"/>
                    <text text-anchor="middle" x="227.2843" y="-344.3" font-family="Helvetica,sans-Serif" font-size="9.00" fill="#000000">ProfileEditor.js</text>
                </a>
            </g>
        </g>
        <!-- src/App.js&#45;&gt;src/ProfileEditor.js -->
        <g id="edge9" class="edge">
            <title>src/App.js&#45;&gt;src/ProfileEditor.js</title>
            <path fill="none" stroke="#000000" stroke-width="2" stroke-opacity="0.466667" d="M116.3498,-84.5353C132.2735,-84.7026 151.4042,-88.0191 162.525,-101 179.1615,-120.4192 154.7381,-310.8841 170.525,-331 173.3753,-334.6318 176.9825,-337.4807 180.9916,-339.7096"/>
            <polygon fill="#000000" fill-opacity="0.466667" stroke="#000000" stroke-width="2" stroke-opacity="0.466667" points="179.7005,-342.9639 190.2723,-343.6623 182.4435,-336.5237 179.7005,-342.9639"/>
        </g>
        <!-- src/SignOut.js -->
        <g id="node21" class="node">
            <title>src/SignOut.js</title>
            <g id="a_node21">
                <a xlink:href="src/SignOut.js" xlink:title="SignOut.js">
                    <path fill="#ffffcc" stroke="#000000" d="M249.5946,-68.3011C249.5946,-68.3011 204.974,-68.3011 204.974,-68.3011 201.8737,-68.3011 198.7733,-65.2007 198.7733,-62.1004 198.7733,-62.1004 198.7733,-55.8996 198.7733,-55.8996 198.7733,-52.7993 201.8737,-49.6989 204.974,-49.6989 204.974,-49.6989 249.5946,-49.6989 249.5946,-49.6989 252.6949,-49.6989 255.7953,-52.7993 255.7953,-55.8996 255.7953,-55.8996 255.7953,-62.1004 255.7953,-62.1004 255.7953,-65.2007 252.6949,-68.3011 249.5946,-68.3011"/>
                    <text text-anchor="middle" x="227.2843" y="-56.3" font-family="Helvetica,sans-Serif" font-size="9.00" fill="#000000">SignOut.js</text>
                </a>
            </g>
        </g>
        <!-- src/App.js&#45;&gt;src/SignOut.js -->
        <g id="edge10" class="edge">
            <title>src/App.js&#45;&gt;src/SignOut.js</title>
            <path fill="none" stroke="#000000" stroke-width="2" stroke-opacity="0.466667" d="M116.5312,-81.4681C137.1058,-77.2942 165.6096,-71.5117 188.5478,-66.8583"/>
            <polygon fill="#000000" fill-opacity="0.466667" stroke="#000000" stroke-width="2" stroke-opacity="0.466667" points="189.5423,-70.228 198.6468,-64.8096 188.1506,-63.3677 189.5423,-70.228"/>
        </g>
        <!-- src/TimerSettings.js -->
        <g id="node26" class="node">
            <title>src/TimerSettings.js</title>
            <g id="a_node26">
                <a xlink:href="src/TimerSettings.js" xlink:title="TimerSettings.js">
                    <path fill="#ffffcc" stroke="#000000" d="M376.5976,-595.3011C376.5976,-595.3011 307.997,-595.3011 307.997,-595.3011 304.8967,-595.3011 301.7963,-592.2007 301.7963,-589.1004 301.7963,-589.1004 301.7963,-582.8996 301.7963,-582.8996 301.7963,-579.7993 304.8967,-576.6989 307.997,-576.6989 307.997,-576.6989 376.5976,-576.6989 376.5976,-576.6989 379.6979,-576.6989 382.7983,-579.7993 382.7983,-582.8996 382.7983,-582.8996 382.7983,-589.1004 382.7983,-589.1004 382.7983,-592.2007 379.6979,-595.3011 376.5976,-595.3011"/>
                    <text text-anchor="middle" x="342.2973" y="-583.3" font-family="Helvetica,sans-Serif" font-size="9.00" fill="#000000">TimerSettings.js</text>
                </a>
            </g>
        </g>
        <!-- src/App.js&#45;&gt;src/TimerSettings.js -->
        <g id="edge11" class="edge">
            <title>src/App.js&#45;&gt;src/TimerSettings.js</title>
            <path fill="none" stroke="#000000" stroke-width="2" stroke-opacity="0.466667" d="M116.2733,-84.6014C132.1683,-84.7935 151.2956,-88.113 162.525,-101 185.1836,-127.0033 147.0194,-230.7598 170.525,-256 205.1697,-293.2013 248.4274,-233.7277 284.0436,-270 303.4555,-289.7695 292.4117,-366.6833 297.0436,-394 307.8924,-457.9816 327.4752,-532.4415 336.918,-566.8119"/>
            <polygon fill="#000000" fill-opacity="0.466667" stroke="#000000" stroke-width="2" stroke-opacity="0.466667" points="333.559,-567.797 339.6036,-576.4983 340.3045,-565.9267 333.559,-567.797"/>
        </g>
        <!-- src/UserContext.js -->
        <g id="node27" class="node">
            <title>src/UserContext.js</title>
            <g id="a_node27">
                <a xlink:href="src/UserContext.js" xlink:title="UserContext.js">
                    <path fill="#ffffcc" stroke="#000000" d="M373.5997,-164.3011C373.5997,-164.3011 310.9949,-164.3011 310.9949,-164.3011 307.8946,-164.3011 304.7942,-161.2007 304.7942,-158.1004 304.7942,-158.1004 304.7942,-151.8996 304.7942,-151.8996 304.7942,-148.7993 307.8946,-145.6989 310.9949,-145.6989 310.9949,-145.6989 373.5997,-145.6989 373.5997,-145.6989 376.7,-145.6989 379.8004,-148.7993 379.8004,-151.8996 379.8004,-151.8996 379.8004,-158.1004 379.8004,-158.1004 379.8004,-161.2007 376.7,-164.3011 373.5997,-164.3011"/>
                    <text text-anchor="middle" x="342.2973" y="-152.3" font-family="Helvetica,sans-Serif" font-size="9.00" fill="#000000">UserContext.js</text>
                </a>
            </g>
        </g>
        <!-- src/App.js&#45;&gt;src/UserContext.js -->
        <g id="edge12" class="edge">
            <title>src/App.js&#45;&gt;src/UserContext.js</title>
            <path fill="none" stroke="#000000" stroke-width="2" stroke-opacity="0.466667" d="M116.5131,-90.3844C130.5039,-92.5763 147.6827,-95.9786 162.525,-101 166.2906,-102.274 166.7945,-103.6267 170.525,-105 219.2903,-122.9522 234.4223,-117.5707 284.0436,-133 292.5763,-135.6532 301.6719,-138.8865 310.0774,-142.0488"/>
            <polygon fill="#000000" fill-opacity="0.466667" stroke="#000000" stroke-width="2" stroke-opacity="0.466667" points="308.9625,-145.3699 319.5525,-145.6894 311.4732,-138.8356 308.9625,-145.3699"/>
        </g>
        <!-- src/Clock.js&#45;&gt;src/UserContext.js -->
        <g id="edge13" class="edge">
            <title>src/Clock.js&#45;&gt;src/UserContext.js</title>
            <path fill="none" stroke="#000000" stroke-width="2" stroke-opacity="0.466667" d="M254.5408,-173.3123C266.6212,-170.7915 281.1915,-167.7511 294.9587,-164.8782"/>
            <polygon fill="#000000" fill-opacity="0.466667" stroke="#000000" stroke-width="2" stroke-opacity="0.466667" points="295.7202,-168.2948 304.7944,-162.8258 294.2903,-161.4424 295.7202,-168.2948"/>
        </g>
        <!-- src/DayRow.js -->
        <g id="node5" class="node">
            <title>src/DayRow.js</title>
            <g id="a_node5">
                <a xlink:href="src/DayRow.js" xlink:title="DayRow.js">
                    <path fill="#ffffcc" stroke="#000000" d="M365.5923,-110.3011C365.5923,-110.3011 319.0023,-110.3011 319.0023,-110.3011 315.902,-110.3011 312.8016,-107.2007 312.8016,-104.1004 312.8016,-104.1004 312.8016,-97.8996 312.8016,-97.8996 312.8016,-94.7993 315.902,-91.6989 319.0023,-91.6989 319.0023,-91.6989 365.5923,-91.6989 365.5923,-91.6989 368.6926,-91.6989 371.793,-94.7993 371.793,-97.8996 371.793,-97.8996 371.793,-104.1004 371.793,-104.1004 371.793,-107.2007 368.6926,-110.3011 365.5923,-110.3011"/>
                    <text text-anchor="middle" x="342.2973" y="-98.3" font-family="Helvetica,sans-Serif" font-size="9.00" fill="#000000">DayRow.js</text>
                </a>
            </g>
        </g>
        <!-- src/ForgotPassword.js -->
        <g id="node7" class="node">
            <title>src/ForgotPassword.js</title>
            <g id="a_node7">
                <a xlink:href="src/ForgotPassword.js" xlink:title="ForgotPassword.js">
                    <path fill="#ffffcc" stroke="#000000" d="M381.1053,-203.3011C381.1053,-203.3011 303.4893,-203.3011 303.4893,-203.3011 300.3889,-203.3011 297.2886,-200.2007 297.2886,-197.1004 297.2886,-197.1004 297.2886,-190.8996 297.2886,-190.8996 297.2886,-187.7993 300.3889,-184.6989 303.4893,-184.6989 303.4893,-184.6989 381.1053,-184.6989 381.1053,-184.6989 384.2057,-184.6989 387.306,-187.7993 387.306,-190.8996 387.306,-190.8996 387.306,-197.1004 387.306,-197.1004 387.306,-200.2007 384.2057,-203.3011 381.1053,-203.3011"/>
                    <text text-anchor="middle" x="342.2973" y="-191.3" font-family="Helvetica,sans-Serif" font-size="9.00" fill="#000000">ForgotPassword.js</text>
                </a>
            </g>
        </g>
        <!-- src/ForgotPassword.js&#45;&gt;src/Firebase.js -->
        <g id="edge14" class="edge">
            <title>src/ForgotPassword.js&#45;&gt;src/Firebase.js</title>
            <path fill="none" stroke="#000000" stroke-width="2" stroke-opacity="0.466667" d="M387.4588,-194C388.4236,-194 389.3877,-194 390.3494,-194"/>
            <polygon fill="#000000" fill-opacity="0.466667" stroke="#000000" stroke-width="2" stroke-opacity="0.466667" points="390.4728,-197.5001 400.4728,-194 390.4727,-190.5001 390.4728,-197.5001"/>
        </g>
        <!-- src/HistoryGrid.js&#45;&gt;src/DayRow.js -->
        <g id="edge15" class="edge">
            <title>src/HistoryGrid.js&#45;&gt;src/DayRow.js</title>
            <path fill="none" stroke="#000000" stroke-width="2" stroke-opacity="0.466667" d="M262.4169,-93.3601C275.1357,-94.5766 289.5845,-95.9585 302.6636,-97.2094"/>
            <polygon fill="#000000" fill-opacity="0.466667" stroke="#000000" stroke-width="2" stroke-opacity="0.466667" points="302.5121,-100.7108 312.8,-98.1788 303.1786,-93.7426 302.5121,-100.7108"/>
        </g>
        <!-- src/InterruptionCounter.js&#45;&gt;src/UserContext.js -->
        <g id="edge16" class="edge">
            <title>src/InterruptionCounter.js&#45;&gt;src/UserContext.js</title>
            <path fill="none" stroke="#000000" stroke-width="2" stroke-opacity="0.466667" d="M278.4005,-151.1111C283.8112,-151.4404 289.2984,-151.7743 294.6671,-152.1011"/>
            <polygon fill="#000000" fill-opacity="0.466667" stroke="#000000" stroke-width="2" stroke-opacity="0.466667" points="294.6002,-155.6034 304.7944,-152.7175 295.0255,-148.6163 294.6002,-155.6034"/>
        </g>
        <!-- src/Login.js&#45;&gt;src/ForgotPassword.js -->
        <g id="edge17" class="edge">
            <title>src/Login.js&#45;&gt;src/ForgotPassword.js</title>
            <path fill="none" stroke="#000000" stroke-width="2" stroke-opacity="0.466667" d="M254.5408,-206.2082C264.4053,-204.8359 275.9299,-203.2327 287.3218,-201.6479"/>
            <polygon fill="#000000" fill-opacity="0.466667" stroke="#000000" stroke-width="2" stroke-opacity="0.466667" points="287.8314,-205.1108 297.2537,-200.2662 286.8668,-198.1776 287.8314,-205.1108"/>
        </g>
        <!-- src/SignIn.js -->
        <g id="node20" class="node">
            <title>src/SignIn.js</title>
            <g id="a_node20">
                <a xlink:href="src/SignIn.js" xlink:title="SignIn.js">
                    <path fill="#ffffcc" stroke="#000000" d="M363.0966,-234.3011C363.0966,-234.3011 321.498,-234.3011 321.498,-234.3011 318.3977,-234.3011 315.2973,-231.2007 315.2973,-228.1004 315.2973,-228.1004 315.2973,-221.8996 315.2973,-221.8996 315.2973,-218.7993 318.3977,-215.6989 321.498,-215.6989 321.498,-215.6989 363.0966,-215.6989 363.0966,-215.6989 366.1969,-215.6989 369.2973,-218.7993 369.2973,-221.8996 369.2973,-221.8996 369.2973,-228.1004 369.2973,-228.1004 369.2973,-231.2007 366.1969,-234.3011 363.0966,-234.3011"/>
                    <text text-anchor="middle" x="342.2973" y="-222.3" font-family="Helvetica,sans-Serif" font-size="9.00" fill="#000000">SignIn.js</text>
                </a>
            </g>
        </g>
        <!-- src/Login.js&#45;&gt;src/SignIn.js -->
        <g id="edge18" class="edge">
            <title>src/Login.js&#45;&gt;src/SignIn.js</title>
            <path fill="none" stroke="#000000" stroke-width="2" stroke-opacity="0.466667" d="M254.5408,-213.5548C269.5804,-215.5163 288.4789,-217.981 304.8827,-220.1204"/>
            <polygon fill="#000000" fill-opacity="0.466667" stroke="#000000" stroke-width="2" stroke-opacity="0.466667" points="304.8678,-223.648 315.2365,-221.4707 305.7731,-216.7068 304.8678,-223.648"/>
        </g>
        <!-- src/SignUp.js -->
        <g id="node22" class="node">
            <title>src/SignUp.js</title>
            <g id="a_node22">
                <a xlink:href="src/SignUp.js" xlink:title="SignUp.js">
                    <path fill="#ffffcc" stroke="#000000" d="M363.1026,-265.3011C363.1026,-265.3011 321.492,-265.3011 321.492,-265.3011 318.3916,-265.3011 315.2913,-262.2007 315.2913,-259.1004 315.2913,-259.1004 315.2913,-252.8996 315.2913,-252.8996 315.2913,-249.7993 318.3916,-246.6989 321.492,-246.6989 321.492,-246.6989 363.1026,-246.6989 363.1026,-246.6989 366.203,-246.6989 369.3033,-249.7993 369.3033,-252.8996 369.3033,-252.8996 369.3033,-259.1004 369.3033,-259.1004 369.3033,-262.2007 366.203,-265.3011 363.1026,-265.3011"/>
                    <text text-anchor="middle" x="342.2973" y="-253.3" font-family="Helvetica,sans-Serif" font-size="9.00" fill="#000000">SignUp.js</text>
                </a>
            </g>
        </g>
        <!-- src/Login.js&#45;&gt;src/SignUp.js -->
        <g id="edge19" class="edge">
            <title>src/Login.js&#45;&gt;src/SignUp.js</title>
            <path fill="none" stroke="#000000" stroke-width="2" stroke-opacity="0.466667" d="M254.5185,-214.4919C264.3125,-216.908 275.1331,-220.5542 284.0436,-226 291.2887,-230.428 289.9464,-235.3386 297.0436,-240 299.76,-241.7841 302.6991,-243.396 305.7298,-244.8466"/>
            <polygon fill="#000000" fill-opacity="0.466667" stroke="#000000" stroke-width="2" stroke-opacity="0.466667" points="304.3914,-248.0806 314.9666,-248.7262 307.1022,-241.6268 304.3914,-248.0806"/>
        </g>
        <!-- src/PokeBanner.js -->
        <g id="node11" class="node">
            <title>src/PokeBanner.js</title>
            <g id="a_node11">
                <a xlink:href="src/PokeBanner.js" xlink:title="PokeBanner.js">
                    <path fill="#ffffcc" stroke="#000000" d="M258.1023,-502.3011C258.1023,-502.3011 196.4663,-502.3011 196.4663,-502.3011 193.366,-502.3011 190.2656,-499.2007 190.2656,-496.1004 190.2656,-496.1004 190.2656,-489.8996 190.2656,-489.8996 190.2656,-486.7993 193.366,-483.6989 196.4663,-483.6989 196.4663,-483.6989 258.1023,-483.6989 258.1023,-483.6989 261.2026,-483.6989 264.303,-486.7993 264.303,-489.8996 264.303,-489.8996 264.303,-496.1004 264.303,-496.1004 264.303,-499.2007 261.2026,-502.3011 258.1023,-502.3011"/>
                    <text text-anchor="middle" x="227.2843" y="-490.3" font-family="Helvetica,sans-Serif" font-size="9.00" fill="#000000">PokeBanner.js</text>
                </a>
            </g>
        </g>
        <!-- src/PostNotes.js -->
        <g id="node12" class="node">
            <title>src/PostNotes.js</title>
            <g id="a_node12">
                <a xlink:href="src/PostNotes.js" xlink:title="PostNotes.js">
                    <path fill="#ffffcc" stroke="#000000" d="M369.1073,-319.3011C369.1073,-319.3011 315.4873,-319.3011 315.4873,-319.3011 312.387,-319.3011 309.2866,-316.2007 309.2866,-313.1004 309.2866,-313.1004 309.2866,-306.8996 309.2866,-306.8996 309.2866,-303.7993 312.387,-300.6989 315.4873,-300.6989 315.4873,-300.6989 369.1073,-300.6989 369.1073,-300.6989 372.2076,-300.6989 375.308,-303.7993 375.308,-306.8996 375.308,-306.8996 375.308,-313.1004 375.308,-313.1004 375.308,-316.2007 372.2076,-319.3011 369.1073,-319.3011"/>
                    <text text-anchor="middle" x="342.2973" y="-307.3" font-family="Helvetica,sans-Serif" font-size="9.00" fill="#000000">PostNotes.js</text>
                </a>
            </g>
        </g>
        <!-- src/PostTimerReport.js&#45;&gt;src/PostNotes.js -->
        <g id="edge20" class="edge">
            <title>src/PostTimerReport.js&#45;&gt;src/PostNotes.js</title>
            <path fill="none" stroke="#000000" stroke-width="2" stroke-opacity="0.466667" d="M264.9216,-250.3642C271.5136,-252.7164 278.1439,-255.5729 284.0436,-259 290.8427,-262.9496 291.1757,-265.766 297.0436,-271 305.5454,-278.5834 315.0829,-286.8393 323.202,-293.7944"/>
            <polygon fill="#000000" fill-opacity="0.466667" stroke="#000000" stroke-width="2" stroke-opacity="0.466667" points="321.168,-296.6597 331.0467,-300.4887 325.7119,-291.335 321.168,-296.6597"/>
        </g>
        <!-- src/StarRating.js -->
        <g id="node23" class="node">
            <title>src/StarRating.js</title>
            <g id="a_node23">
                <a xlink:href="src/StarRating.js" xlink:title="StarRating.js">
                    <path fill="#ffffcc" stroke="#000000" d="M369.6036,-388.3011C369.6036,-388.3011 314.991,-388.3011 314.991,-388.3011 311.8907,-388.3011 308.7903,-385.2007 308.7903,-382.1004 308.7903,-382.1004 308.7903,-375.8996 308.7903,-375.8996 308.7903,-372.7993 311.8907,-369.6989 314.991,-369.6989 314.991,-369.6989 369.6036,-369.6989 369.6036,-369.6989 372.7039,-369.6989 375.8043,-372.7993 375.8043,-375.8996 375.8043,-375.8996 375.8043,-382.1004 375.8043,-382.1004 375.8043,-385.2007 372.7039,-388.3011 369.6036,-388.3011"/>
                    <text text-anchor="middle" x="342.2973" y="-376.3" font-family="Helvetica,sans-Serif" font-size="9.00" fill="#000000">StarRating.js</text>
                </a>
            </g>
        </g>
        <!-- src/PostTimerReport.js&#45;&gt;src/StarRating.js -->
        <g id="edge21" class="edge">
            <title>src/PostTimerReport.js&#45;&gt;src/StarRating.js</title>
            <path fill="none" stroke="#000000" stroke-width="2" stroke-opacity="0.466667" d="M272.809,-250.306C277.0135,-252.6004 280.8756,-255.4536 284.0436,-259 303.9607,-281.2966 284.1475,-298.0275 297.0436,-325 303.7048,-338.932 314.8021,-352.2559 324.3399,-362.183"/>
            <polygon fill="#000000" fill-opacity="0.466667" stroke="#000000" stroke-width="2" stroke-opacity="0.466667" points="321.9877,-364.7802 331.5402,-369.3629 326.9304,-359.8234 321.9877,-364.7802"/>
        </g>
        <!-- src/PostTimerReport.js&#45;&gt;src/UserContext.js -->
        <g id="edge22" class="edge">
            <title>src/PostTimerReport.js&#45;&gt;src/UserContext.js</title>
            <path fill="none" stroke="#000000" stroke-width="2" stroke-opacity="0.466667" d="M273.8596,-232.3783C277.6005,-230.3943 281.0745,-227.9672 284.0436,-225 299.0712,-209.9824 283.6964,-195.5291 297.0436,-179 299.9506,-175.4 303.5453,-172.272 307.4281,-169.5727"/>
            <polygon fill="#000000" fill-opacity="0.466667" stroke="#000000" stroke-width="2" stroke-opacity="0.466667" points="309.4303,-172.4541 316.2333,-164.3319 305.85,-166.439 309.4303,-172.4541"/>
        </g>
        <!-- src/Teammate.js -->
        <g id="node25" class="node">
            <title>src/Teammate.js</title>
            <g id="a_node25">
                <a xlink:href="src/Teammate.js" xlink:title="Teammate.js">
                    <path fill="#ffffcc" stroke="#000000" d="M370.0986,-688.3011C370.0986,-688.3011 314.496,-688.3011 314.496,-688.3011 311.3957,-688.3011 308.2953,-685.2007 308.2953,-682.1004 308.2953,-682.1004 308.2953,-675.8996 308.2953,-675.8996 308.2953,-672.7993 311.3957,-669.6989 314.496,-669.6989 314.496,-669.6989 370.0986,-669.6989 370.0986,-669.6989 373.1989,-669.6989 376.2993,-672.7993 376.2993,-675.8996 376.2993,-675.8996 376.2993,-682.1004 376.2993,-682.1004 376.2993,-685.2007 373.1989,-688.3011 370.0986,-688.3011"/>
                    <text text-anchor="middle" x="342.2973" y="-676.3" font-family="Helvetica,sans-Serif" font-size="9.00" fill="#000000">Teammate.js</text>
                </a>
            </g>
        </g>
        <!-- src/ProfileEditor.js&#45;&gt;src/Teammate.js -->
        <g id="edge23" class="edge">
            <title>src/ProfileEditor.js&#45;&gt;src/Teammate.js</title>
            <path fill="none" stroke="#000000" stroke-width="2" stroke-opacity="0.466667" d="M232.6077,-356.4965C244.1613,-377.5986 271.5025,-430.2967 284.0436,-478 298.0204,-531.1646 279.9861,-548.7423 297.0436,-601 304.285,-623.1849 318.4364,-645.9798 328.9957,-661.1527"/>
            <polygon fill="#000000" fill-opacity="0.466667" stroke="#000000" stroke-width="2" stroke-opacity="0.466667" points="326.3399,-663.4552 335.0122,-669.5414 332.0281,-659.3755 326.3399,-663.4552"/>
        </g>
        <!-- src/ProjectPicker.js -->
        <g id="node15" class="node">
            <title>src/ProjectPicker.js</title>
            <g id="a_node15">
                <a xlink:href="src/ProjectPicker.js" xlink:title="ProjectPicker.js">
                    <path fill="#ffffcc" stroke="#000000" d="M260.0828,-533.3011C260.0828,-533.3011 194.4858,-533.3011 194.4858,-533.3011 191.3855,-533.3011 188.2851,-530.2007 188.2851,-527.1004 188.2851,-527.1004 188.2851,-520.8996 188.2851,-520.8996 188.2851,-517.7993 191.3855,-514.6989 194.4858,-514.6989 194.4858,-514.6989 260.0828,-514.6989 260.0828,-514.6989 263.1831,-514.6989 266.2835,-517.7993 266.2835,-520.8996 266.2835,-520.8996 266.2835,-527.1004 266.2835,-527.1004 266.2835,-530.2007 263.1831,-533.3011 260.0828,-533.3011"/>
                    <text text-anchor="middle" x="227.2843" y="-521.3" font-family="Helvetica,sans-Serif" font-size="9.00" fill="#000000">ProjectPicker.js</text>
                </a>
            </g>
        </g>
        <!-- src/QuickResponse.js -->
        <g id="node16" class="node">
            <title>src/QuickResponse.js</title>
            <g id="a_node16">
                <a xlink:href="src/QuickResponse.js" xlink:title="QuickResponse.js">
                    <path fill="#ffffcc" stroke="#000000" d="M380.11,-765.3011C380.11,-765.3011 304.4846,-765.3011 304.4846,-765.3011 301.3842,-765.3011 298.2839,-762.2007 298.2839,-759.1004 298.2839,-759.1004 298.2839,-752.8996 298.2839,-752.8996 298.2839,-749.7993 301.3842,-746.6989 304.4846,-746.6989 304.4846,-746.6989 380.11,-746.6989 380.11,-746.6989 383.2104,-746.6989 386.3107,-749.7993 386.3107,-752.8996 386.3107,-752.8996 386.3107,-759.1004 386.3107,-759.1004 386.3107,-762.2007 383.2104,-765.3011 380.11,-765.3011"/>
                    <text text-anchor="middle" x="342.2973" y="-753.3" font-family="Helvetica,sans-Serif" font-size="9.00" fill="#000000">QuickResponse.js</text>
                </a>
            </g>
        </g>
        <!-- src/QuickResponseGroup.js -->
        <g id="node17" class="node">
            <title>src/QuickResponseGroup.js</title>
            <g id="a_node17">
                <a xlink:href="src/QuickResponseGroup.js" xlink:title="QuickResponseGroup.js">
                    <path fill="#ffffcc" stroke="#000000" d="M277.6032,-778.3011C277.6032,-778.3011 176.9654,-778.3011 176.9654,-778.3011 173.865,-778.3011 170.7647,-775.2007 170.7647,-772.1004 170.7647,-772.1004 170.7647,-765.8996 170.7647,-765.8996 170.7647,-762.7993 173.865,-759.6989 176.9654,-759.6989 176.9654,-759.6989 277.6032,-759.6989 277.6032,-759.6989 280.7036,-759.6989 283.8039,-762.7993 283.8039,-765.8996 283.8039,-765.8996 283.8039,-772.1004 283.8039,-772.1004 283.8039,-775.2007 280.7036,-778.3011 277.6032,-778.3011"/>
                    <text text-anchor="middle" x="227.2843" y="-766.3" font-family="Helvetica,sans-Serif" font-size="9.00" fill="#000000">QuickResponseGroup.js</text>
                </a>
            </g>
        </g>
        <!-- src/QuickResponseGroup.js&#45;&gt;src/QuickResponse.js -->
        <g id="edge24" class="edge">
            <title>src/QuickResponseGroup.js&#45;&gt;src/QuickResponse.js</title>
            <path fill="none" stroke="#000000" stroke-width="2" stroke-opacity="0.466667" d="M284.1169,-762.5762C285.4539,-762.425 286.7915,-762.2739 288.1266,-762.123"/>
            <polygon fill="#000000" fill-opacity="0.466667" stroke="#000000" stroke-width="2" stroke-opacity="0.466667" points="288.7235,-765.5779 298.267,-760.9768 287.9372,-758.6222 288.7235,-765.5779"/>
        </g>
        <!-- src/ResponseChips.js -->
        <g id="node18" class="node">
            <title>src/ResponseChips.js</title>
            <g id="a_node18">
                <a xlink:href="src/ResponseChips.js" xlink:title="ResponseChips.js">
                    <path fill="#ffffcc" stroke="#000000" d="M127.0743,-65.3011C127.0743,-65.3011 51.4507,-65.3011 51.4507,-65.3011 48.3503,-65.3011 45.25,-62.2007 45.25,-59.1004 45.25,-59.1004 45.25,-52.8996 45.25,-52.8996 45.25,-49.7993 48.3503,-46.6989 51.4507,-46.6989 51.4507,-46.6989 127.0743,-46.6989 127.0743,-46.6989 130.1747,-46.6989 133.275,-49.7993 133.275,-52.8996 133.275,-52.8996 133.275,-59.1004 133.275,-59.1004 133.275,-62.2007 130.1747,-65.3011 127.0743,-65.3011"/>
                    <text text-anchor="middle" x="89.2625" y="-53.3" font-family="Helvetica,sans-Serif" font-size="9.00" fill="#000000">ResponseChips.js</text>
                </a>
            </g>
        </g>
        <!-- src/SettingsPage.js -->
        <g id="node19" class="node">
            <title>src/SettingsPage.js</title>
            <g id="a_node19">
                <a xlink:href="src/SettingsPage.js" xlink:title="SettingsPage.js">
                    <path fill="#ffffcc" stroke="#000000" d="M260.1054,-595.3011C260.1054,-595.3011 194.4632,-595.3011 194.4632,-595.3011 191.3629,-595.3011 188.2625,-592.2007 188.2625,-589.1004 188.2625,-589.1004 188.2625,-582.8996 188.2625,-582.8996 188.2625,-579.7993 191.3629,-576.6989 194.4632,-576.6989 194.4632,-576.6989 260.1054,-576.6989 260.1054,-576.6989 263.2057,-576.6989 266.3061,-579.7993 266.3061,-582.8996 266.3061,-582.8996 266.3061,-589.1004 266.3061,-589.1004 266.3061,-592.2007 263.2057,-595.3011 260.1054,-595.3011"/>
                    <text text-anchor="middle" x="227.2843" y="-583.3" font-family="Helvetica,sans-Serif" font-size="9.00" fill="#000000">SettingsPage.js</text>
                </a>
            </g>
        </g>
        <!-- src/SettingsPage.js&#45;&gt;src/TimerSettings.js -->
        <g id="edge25" class="edge">
            <title>src/SettingsPage.js&#45;&gt;src/TimerSettings.js</title>
            <path fill="none" stroke="#000000" stroke-width="2" stroke-opacity="0.466667" d="M266.5436,-586C274.6861,-586 283.3731,-586 291.8521,-586"/>
            <polygon fill="#000000" fill-opacity="0.466667" stroke="#000000" stroke-width="2" stroke-opacity="0.466667" points="292.0411,-589.5001 302.041,-586 292.041,-582.5001 292.0411,-589.5001"/>
        </g>
        <!-- src/SignIn.js&#45;&gt;src/Firebase.js -->
        <g id="edge26" class="edge">
            <title>src/SignIn.js&#45;&gt;src/Firebase.js</title>
            <path fill="none" stroke="#000000" stroke-width="2" stroke-opacity="0.466667" d="M369.2562,-215.5305C377.1989,-212.7406 386.0208,-209.6418 394.4399,-206.6846"/>
            <polygon fill="#000000" fill-opacity="0.466667" stroke="#000000" stroke-width="2" stroke-opacity="0.466667" points="395.7865,-209.9213 404.0614,-203.305 393.4666,-203.3169 395.7865,-209.9213"/>
        </g>
        <!-- src/SignOut.js&#45;&gt;src/Firebase.js -->
        <g id="edge27" class="edge">
            <title>src/SignOut.js&#45;&gt;src/Firebase.js</title>
            <path fill="none" stroke="#000000" stroke-width="2" stroke-opacity="0.466667" d="M255.8363,-55.9451C290.7719,-53.8106 349.9052,-55.5952 387.551,-86 414.7813,-107.9927 424.8522,-149.757 428.5159,-174.4082"/>
            <polygon fill="#000000" fill-opacity="0.466667" stroke="#000000" stroke-width="2" stroke-opacity="0.466667" points="425.0526,-174.9195 429.7869,-184.3978 431.9966,-174.0359 425.0526,-174.9195"/>
        </g>
        <!-- src/SignUp.js&#45;&gt;src/Firebase.js -->
        <g id="edge28" class="edge">
            <title>src/SignUp.js&#45;&gt;src/Firebase.js</title>
            <path fill="none" stroke="#000000" stroke-width="2" stroke-opacity="0.466667" d="M369.6194,-248.713C375.7866,-246.4348 382.1122,-243.5592 387.551,-240 399.1769,-232.392 409.8578,-221.0004 417.6665,-211.4572"/>
            <polygon fill="#000000" fill-opacity="0.466667" stroke="#000000" stroke-width="2" stroke-opacity="0.466667" points="420.5815,-213.4109 423.975,-203.3742 415.0632,-209.104 420.5815,-213.4109"/>
        </g>
        <!-- src/Team.js -->
        <g id="node24" class="node">
            <title>src/Team.js</title>
            <g id="a_node24">
                <a xlink:href="src/Team.js" xlink:title="Team.js">
                    <path fill="#ffffcc" stroke="#000000" d="M248.0836,-715.3011C248.0836,-715.3011 206.485,-715.3011 206.485,-715.3011 203.3847,-715.3011 200.2843,-712.2007 200.2843,-709.1004 200.2843,-709.1004 200.2843,-702.8996 200.2843,-702.8996 200.2843,-699.7993 203.3847,-696.6989 206.485,-696.6989 206.485,-696.6989 248.0836,-696.6989 248.0836,-696.6989 251.1839,-696.6989 254.2843,-699.7993 254.2843,-702.8996 254.2843,-702.8996 254.2843,-709.1004 254.2843,-709.1004 254.2843,-712.2007 251.1839,-715.3011 248.0836,-715.3011"/>
                    <text text-anchor="middle" x="227.2843" y="-703.3" font-family="Helvetica,sans-Serif" font-size="9.00" fill="#000000">Team.js</text>
                </a>
            </g>
        </g>
        <!-- src/Team.js&#45;&gt;src/Teammate.js -->
        <g id="edge29" class="edge">
            <title>src/Team.js&#45;&gt;src/Teammate.js</title>
            <path fill="none" stroke="#000000" stroke-width="2" stroke-opacity="0.466667" d="M254.5408,-699.6014C267.6021,-696.5352 283.5739,-692.7857 298.2945,-689.3299"/>
            <polygon fill="#000000" fill-opacity="0.466667" stroke="#000000" stroke-width="2" stroke-opacity="0.466667" points="299.2992,-692.6893 308.2346,-686.9964 297.6993,-685.8746 299.2992,-692.6893"/>
        </g>
        <!-- src/__tests__/Clock.test.js -->
        <g id="node28" class="node">
            <title>src/__tests__/Clock.test.js</title>
            <g id="a_node28">
                <a xlink:href="src/__tests__/Clock.test.js" xlink:title="Clock.test.js">
                    <path fill="#ffffcc" stroke="#000000" d="M115.0656,-192.3011C115.0656,-192.3011 63.4594,-192.3011 63.4594,-192.3011 60.359,-192.3011 57.2587,-189.2007 57.2587,-186.1004 57.2587,-186.1004 57.2587,-179.8996 57.2587,-179.8996 57.2587,-176.7993 60.359,-173.6989 63.4594,-173.6989 63.4594,-173.6989 115.0656,-173.6989 115.0656,-173.6989 118.166,-173.6989 121.2663,-176.7993 121.2663,-179.8996 121.2663,-179.8996 121.2663,-186.1004 121.2663,-186.1004 121.2663,-189.2007 118.166,-192.3011 115.0656,-192.3011"/>
                    <text text-anchor="middle" x="89.2625" y="-180.3" font-family="Helvetica,sans-Serif" font-size="9.00" fill="#000000">Clock.test.js</text>
                </a>
            </g>
        </g>
        <!-- src/__tests__/Clock.test.js&#45;&gt;src/Clock.js -->
        <g id="edge30" class="edge">
            <title>src/__tests__/Clock.test.js&#45;&gt;src/Clock.js</title>
            <path fill="none" stroke="#000000" stroke-width="2" stroke-opacity="0.466667" d="M121.2744,-182.0723C141.8053,-181.4773 168.539,-180.7025 190.0231,-180.0799"/>
            <polygon fill="#000000" fill-opacity="0.466667" stroke="#000000" stroke-width="2" stroke-opacity="0.466667" points="190.2036,-183.5762 200.098,-179.7879 190.0008,-176.5791 190.2036,-183.5762"/>
        </g>
        <!-- src/__tests__/DangerDeleteUser.test.js -->
        <g id="node29" class="node">
            <title>src/__tests__/DangerDeleteUser.test.js</title>
            <g id="a_node29">
                <a xlink:href="src/__tests__/DangerDeleteUser.test.js" xlink:title="DangerDeleteUser.test.js">
                    <path fill="#ffffcc" stroke="#000000" d="M141.0739,-285.3011C141.0739,-285.3011 37.4511,-285.3011 37.4511,-285.3011 34.3507,-285.3011 31.2504,-282.2007 31.2504,-279.1004 31.2504,-279.1004 31.2504,-272.8996 31.2504,-272.8996 31.2504,-269.7993 34.3507,-266.6989 37.4511,-266.6989 37.4511,-266.6989 141.0739,-266.6989 141.0739,-266.6989 144.1743,-266.6989 147.2746,-269.7993 147.2746,-272.8996 147.2746,-272.8996 147.2746,-279.1004 147.2746,-279.1004 147.2746,-282.2007 144.1743,-285.3011 141.0739,-285.3011"/>
                    <text text-anchor="middle" x="89.2625" y="-273.3" font-family="Helvetica,sans-Serif" font-size="9.00" fill="#000000">DangerDeleteUser.test.js</text>
                </a>
            </g>
        </g>
        <!-- src/__tests__/DangerDeleteUser.test.js&#45;&gt;src/DangerDeleteUser.js -->
        <g id="edge31" class="edge">
            <title>src/__tests__/DangerDeleteUser.test.js&#45;&gt;src/DangerDeleteUser.js</title>
            <path fill="none" stroke="#000000" stroke-width="2" stroke-opacity="0.466667" d="M147.3961,-279.7907C153.9714,-280.2195 160.6818,-280.657 167.2805,-281.0873"/>
            <polygon fill="#000000" fill-opacity="0.466667" stroke="#000000" stroke-width="2" stroke-opacity="0.466667" points="167.3157,-284.597 177.5223,-281.7552 167.7713,-277.6118 167.3157,-284.597"/>
        </g>
        <!-- src/__tests__/DataDownload.test.js -->
        <g id="node30" class="node">
            <title>src/__tests__/DataDownload.test.js</title>
            <g id="a_node30">
                <a xlink:href="src/__tests__/DataDownload.test.js" xlink:title="DataDownload.test.js">
                    <path fill="#ffffcc" stroke="#000000" d="M133.5776,-316.3011C133.5776,-316.3011 44.9474,-316.3011 44.9474,-316.3011 41.847,-316.3011 38.7467,-313.2007 38.7467,-310.1004 38.7467,-310.1004 38.7467,-303.8996 38.7467,-303.8996 38.7467,-300.7993 41.847,-297.6989 44.9474,-297.6989 44.9474,-297.6989 133.5776,-297.6989 133.5776,-297.6989 136.678,-297.6989 139.7783,-300.7993 139.7783,-303.8996 139.7783,-303.8996 139.7783,-310.1004 139.7783,-310.1004 139.7783,-313.2007 136.678,-316.3011 133.5776,-316.3011"/>
                    <text text-anchor="middle" x="89.2625" y="-304.3" font-family="Helvetica,sans-Serif" font-size="9.00" fill="#000000">DataDownload.test.js</text>
                </a>
            </g>
        </g>
        <!-- src/__tests__/DataDownload.test.js&#45;&gt;src/DataDownload.js -->
        <g id="edge32" class="edge">
            <title>src/__tests__/DataDownload.test.js&#45;&gt;src/DataDownload.js</title>
            <path fill="none" stroke="#000000" stroke-width="2" stroke-opacity="0.466667" d="M139.873,-310.3002C151.1826,-311.0376 163.2035,-311.8215 174.595,-312.5643"/>
            <polygon fill="#000000" fill-opacity="0.466667" stroke="#000000" stroke-width="2" stroke-opacity="0.466667" points="174.6346,-316.0742 184.8411,-313.2324 175.0901,-309.089 174.6346,-316.0742"/>
        </g>
        <!-- src/__tests__/DayRow.test.js -->
        <g id="node31" class="node">
            <title>src/__tests__/DayRow.test.js</title>
            <g id="a_node31">
                <a xlink:href="src/__tests__/DayRow.test.js" xlink:title="DayRow.test.js">
                    <path fill="#ffffcc" stroke="#000000" d="M121.0639,-130.3011C121.0639,-130.3011 57.4611,-130.3011 57.4611,-130.3011 54.3608,-130.3011 51.2604,-127.2007 51.2604,-124.1004 51.2604,-124.1004 51.2604,-117.8996 51.2604,-117.8996 51.2604,-114.7993 54.3608,-111.6989 57.4611,-111.6989 57.4611,-111.6989 121.0639,-111.6989 121.0639,-111.6989 124.1642,-111.6989 127.2646,-114.7993 127.2646,-117.8996 127.2646,-117.8996 127.2646,-124.1004 127.2646,-124.1004 127.2646,-127.2007 124.1642,-130.3011 121.0639,-130.3011"/>
                    <text text-anchor="middle" x="89.2625" y="-118.3" font-family="Helvetica,sans-Serif" font-size="9.00" fill="#000000">DayRow.test.js</text>
                </a>
            </g>
        </g>
        <!-- src/__tests__/DayRow.test.js&#45;&gt;src/DayRow.js -->
        <g id="edge33" class="edge">
            <title>src/__tests__/DayRow.test.js&#45;&gt;src/DayRow.js</title>
            <path fill="none" stroke="#000000" stroke-width="2" stroke-opacity="0.466667" d="M127.4183,-117.9841C174.6233,-114.253 254.6075,-107.931 302.54,-104.1424"/>
            <polygon fill="#000000" fill-opacity="0.466667" stroke="#000000" stroke-width="2" stroke-opacity="0.466667" points="302.8548,-107.6286 312.5479,-103.3514 302.3031,-100.6503 302.8548,-107.6286"/>
        </g>
        <!-- src/__tests__/ForgotPassword.test.js -->
        <g id="node32" class="node">
            <title>src/__tests__/ForgotPassword.test.js</title>
            <g id="a_node32">
                <a xlink:href="src/__tests__/ForgotPassword.test.js" xlink:title="ForgotPassword.test.js">
                    <path fill="#ffffcc" stroke="#000000" d="M136.5767,-378.3011C136.5767,-378.3011 41.9483,-378.3011 41.9483,-378.3011 38.848,-378.3011 35.7476,-375.2007 35.7476,-372.1004 35.7476,-372.1004 35.7476,-365.8996 35.7476,-365.8996 35.7476,-362.7993 38.848,-359.6989 41.9483,-359.6989 41.9483,-359.6989 136.5767,-359.6989 136.5767,-359.6989 139.677,-359.6989 142.7774,-362.7993 142.7774,-365.8996 142.7774,-365.8996 142.7774,-372.1004 142.7774,-372.1004 142.7774,-375.2007 139.677,-378.3011 136.5767,-378.3011"/>
                    <text text-anchor="middle" x="89.2625" y="-366.3" font-family="Helvetica,sans-Serif" font-size="9.00" fill="#000000">ForgotPassword.test.js</text>
                </a>
            </g>
        </g>
        <!-- src/__tests__/ForgotPassword.test.js&#45;&gt;src/ForgotPassword.js -->
        <g id="edge34" class="edge">
            <title>src/__tests__/ForgotPassword.test.js&#45;&gt;src/ForgotPassword.js</title>
            <path fill="none" stroke="#000000" stroke-width="2" stroke-opacity="0.466667" d="M143.0954,-374.6968C193.6952,-378.7436 264.4963,-380.6048 284.0436,-362 306.7774,-340.3623 280.7884,-251.5003 299.069,-211.8464"/>
            <polygon fill="#000000" fill-opacity="0.466667" stroke="#000000" stroke-width="2" stroke-opacity="0.466667" points="302.0631,-213.6594 304.3671,-203.3181 296.117,-209.9655 302.0631,-213.6594"/>
        </g>
        <!-- src/__tests__/HistoryGrid.test.js -->
        <g id="node33" class="node">
            <title>src/__tests__/HistoryGrid.test.js</title>
            <g id="a_node33">
                <a xlink:href="src/__tests__/HistoryGrid.test.js" xlink:title="HistoryGrid.test.js">
                    <path fill="#ffffcc" stroke="#000000" d="M126.5583,-626.3011C126.5583,-626.3011 51.9667,-626.3011 51.9667,-626.3011 48.8664,-626.3011 45.766,-623.2007 45.766,-620.1004 45.766,-620.1004 45.766,-613.8996 45.766,-613.8996 45.766,-610.7993 48.8664,-607.6989 51.9667,-607.6989 51.9667,-607.6989 126.5583,-607.6989 126.5583,-607.6989 129.6586,-607.6989 132.759,-610.7993 132.759,-613.8996 132.759,-613.8996 132.759,-620.1004 132.759,-620.1004 132.759,-623.2007 129.6586,-626.3011 126.5583,-626.3011"/>
                    <text text-anchor="middle" x="89.2625" y="-614.3" font-family="Helvetica,sans-Serif" font-size="9.00" fill="#000000">HistoryGrid.test.js</text>
                </a>
            </g>
        </g>
        <!-- src/__tests__/InterruptionCounter.test.js -->
        <g id="node34" class="node">
            <title>src/__tests__/InterruptionCounter.test.js</title>
            <g id="a_node34">
                <a xlink:href="src/__tests__/InterruptionCounter.test.js" xlink:title="InterruptionCounter.test.js">
                    <path fill="#ffffcc" stroke="#000000" d="M142.5852,-161.3011C142.5852,-161.3011 35.9398,-161.3011 35.9398,-161.3011 32.8394,-161.3011 29.739,-158.2007 29.739,-155.1004 29.739,-155.1004 29.739,-148.8996 29.739,-148.8996 29.739,-145.7993 32.8394,-142.6989 35.9398,-142.6989 35.9398,-142.6989 142.5852,-142.6989 142.5852,-142.6989 145.6856,-142.6989 148.786,-145.7993 148.786,-148.8996 148.786,-148.8996 148.786,-155.1004 148.786,-155.1004 148.786,-158.2007 145.6856,-161.3011 142.5852,-161.3011"/>
                    <text text-anchor="middle" x="89.2625" y="-149.3" font-family="Helvetica,sans-Serif" font-size="9.00" fill="#000000">InterruptionCounter.test.js</text>
                </a>
            </g>
        </g>
        <!-- src/__tests__/InterruptionCounter.test.js&#45;&gt;src/InterruptionCounter.js -->
        <g id="edge35" class="edge">
            <title>src/__tests__/InterruptionCounter.test.js&#45;&gt;src/InterruptionCounter.js</title>
            <path fill="none" stroke="#000000" stroke-width="2" stroke-opacity="0.466667" d="M148.9981,-150.2688C154.6444,-150.1052 160.3751,-149.9391 166.0352,-149.7751"/>
            <polygon fill="#000000" fill-opacity="0.466667" stroke="#000000" stroke-width="2" stroke-opacity="0.466667" points="166.2194,-153.2713 176.1138,-149.483 166.0166,-146.2742 166.2194,-153.2713"/>
        </g>
        <!-- src/__tests__/Login.test.js -->
        <g id="node35" class="node">
            <title>src/__tests__/Login.test.js</title>
            <g id="a_node35">
                <a xlink:href="src/__tests__/Login.test.js" xlink:title="Login.test.js">
                    <path fill="#ffffcc" stroke="#000000" d="M115.0759,-223.3011C115.0759,-223.3011 63.4491,-223.3011 63.4491,-223.3011 60.3487,-223.3011 57.2484,-220.2007 57.2484,-217.1004 57.2484,-217.1004 57.2484,-210.8996 57.2484,-210.8996 57.2484,-207.7993 60.3487,-204.6989 63.4491,-204.6989 63.4491,-204.6989 115.0759,-204.6989 115.0759,-204.6989 118.1763,-204.6989 121.2766,-207.7993 121.2766,-210.8996 121.2766,-210.8996 121.2766,-217.1004 121.2766,-217.1004 121.2766,-220.2007 118.1763,-223.3011 115.0759,-223.3011"/>
                    <text text-anchor="middle" x="89.2625" y="-211.3" font-family="Helvetica,sans-Serif" font-size="9.00" fill="#000000">Login.test.js</text>
                </a>
            </g>
        </g>
        <!-- src/__tests__/Login.test.js&#45;&gt;src/Login.js -->
        <g id="edge36" class="edge">
            <title>src/__tests__/Login.test.js&#45;&gt;src/Login.js</title>
            <path fill="none" stroke="#000000" stroke-width="2" stroke-opacity="0.466667" d="M121.2744,-213.0723C141.8053,-212.4773 168.539,-211.7025 190.0231,-211.0799"/>
            <polygon fill="#000000" fill-opacity="0.466667" stroke="#000000" stroke-width="2" stroke-opacity="0.466667" points="190.2036,-214.5762 200.098,-210.7879 190.0008,-207.5791 190.2036,-214.5762"/>
        </g>
        <!-- src/__tests__/PokeBanner.test.js -->
        <g id="node36" class="node">
            <title>src/__tests__/PokeBanner.test.js</title>
            <g id="a_node36">
                <a xlink:href="src/__tests__/PokeBanner.test.js" xlink:title="PokeBanner.test.js">
                    <path fill="#ffffcc" stroke="#000000" d="M128.5865,-502.3011C128.5865,-502.3011 49.9385,-502.3011 49.9385,-502.3011 46.8381,-502.3011 43.7378,-499.2007 43.7378,-496.1004 43.7378,-496.1004 43.7378,-489.8996 43.7378,-489.8996 43.7378,-486.7993 46.8381,-483.6989 49.9385,-483.6989 49.9385,-483.6989 128.5865,-483.6989 128.5865,-483.6989 131.6869,-483.6989 134.7872,-486.7993 134.7872,-489.8996 134.7872,-489.8996 134.7872,-496.1004 134.7872,-496.1004 134.7872,-499.2007 131.6869,-502.3011 128.5865,-502.3011"/>
                    <text text-anchor="middle" x="89.2625" y="-490.3" font-family="Helvetica,sans-Serif" font-size="9.00" fill="#000000">PokeBanner.test.js</text>
                </a>
            </g>
        </g>
        <!-- src/__tests__/PokeBanner.test.js&#45;&gt;src/PokeBanner.js -->
        <g id="edge37" class="edge">
            <title>src/__tests__/PokeBanner.test.js&#45;&gt;src/PokeBanner.js</title>
            <path fill="none" stroke="#000000" stroke-width="2" stroke-opacity="0.466667" d="M134.8385,-493C149.2446,-493 165.1968,-493 179.7372,-493"/>
            <polygon fill="#000000" fill-opacity="0.466667" stroke="#000000" stroke-width="2" stroke-opacity="0.466667" points="180.0331,-496.5001 190.0331,-493 180.033,-489.5001 180.0331,-496.5001"/>
        </g>
        <!-- src/__tests__/PostNotes.test.js -->
        <g id="node37" class="node">
            <title>src/__tests__/PostNotes.test.js</title>
            <g id="a_node37">
                <a xlink:href="src/__tests__/PostNotes.test.js" xlink:title="PostNotes.test.js">
                    <path fill="#ffffcc" stroke="#000000" d="M124.5785,-440.3011C124.5785,-440.3011 53.9465,-440.3011 53.9465,-440.3011 50.8462,-440.3011 47.7458,-437.2007 47.7458,-434.1004 47.7458,-434.1004 47.7458,-427.8996 47.7458,-427.8996 47.7458,-424.7993 50.8462,-421.6989 53.9465,-421.6989 53.9465,-421.6989 124.5785,-421.6989 124.5785,-421.6989 127.6788,-421.6989 130.7792,-424.7993 130.7792,-427.8996 130.7792,-427.8996 130.7792,-434.1004 130.7792,-434.1004 130.7792,-437.2007 127.6788,-440.3011 124.5785,-440.3011"/>
                    <text text-anchor="middle" x="89.2625" y="-428.3" font-family="Helvetica,sans-Serif" font-size="9.00" fill="#000000">PostNotes.test.js</text>
                </a>
            </g>
        </g>
        <!-- src/__tests__/PostNotes.test.js&#45;&gt;src/PostNotes.js -->
        <g id="edge38" class="edge">
            <title>src/__tests__/PostNotes.test.js&#45;&gt;src/PostNotes.js</title>
            <path fill="none" stroke="#000000" stroke-width="2" stroke-opacity="0.466667" d="M130.8775,-434.4765C173.8839,-435.7894 240.6782,-431.1651 284.0436,-396 295.9671,-386.3312 289.1288,-377.1533 297.0436,-364 305.1051,-350.6028 316.399,-337.1211 325.6873,-326.9795"/>
            <polygon fill="#000000" fill-opacity="0.466667" stroke="#000000" stroke-width="2" stroke-opacity="0.466667" points="328.3015,-329.3086 332.6062,-319.6277 323.204,-324.5112 328.3015,-329.3086"/>
        </g>
        <!-- src/__tests__/PostTimerReport.test.js -->
        <g id="node38" class="node">
            <title>src/__tests__/PostTimerReport.test.js</title>
            <g id="a_node38">
                <a xlink:href="src/__tests__/PostTimerReport.test.js" xlink:title="PostTimerReport.test.js">
                    <path fill="#ffffcc" stroke="#000000" d="M138.0668,-254.3011C138.0668,-254.3011 40.4582,-254.3011 40.4582,-254.3011 37.3579,-254.3011 34.2575,-251.2007 34.2575,-248.1004 34.2575,-248.1004 34.2575,-241.8996 34.2575,-241.8996 34.2575,-238.7993 37.3579,-235.6989 40.4582,-235.6989 40.4582,-235.6989 138.0668,-235.6989 138.0668,-235.6989 141.1671,-235.6989 144.2675,-238.7993 144.2675,-241.8996 144.2675,-241.8996 144.2675,-248.1004 144.2675,-248.1004 144.2675,-251.2007 141.1671,-254.3011 138.0668,-254.3011"/>
                    <text text-anchor="middle" x="89.2625" y="-242.3" font-family="Helvetica,sans-Serif" font-size="9.00" fill="#000000">PostTimerReport.test.js</text>
                </a>
            </g>
        </g>
        <!-- src/__tests__/PostTimerReport.test.js&#45;&gt;src/PostTimerReport.js -->
        <g id="edge39" class="edge">
            <title>src/__tests__/PostTimerReport.test.js&#45;&gt;src/PostTimerReport.js</title>
            <path fill="none" stroke="#000000" stroke-width="2" stroke-opacity="0.466667" d="M144.606,-243.3961C153.0303,-243.1519 161.7377,-242.8996 170.1985,-242.6544"/>
            <polygon fill="#000000" fill-opacity="0.466667" stroke="#000000" stroke-width="2" stroke-opacity="0.466667" points="170.4664,-246.1482 180.3608,-242.3599 170.2636,-239.1511 170.4664,-246.1482"/>
        </g>
        <!-- src/__tests__/ProfileEditor.test.js -->
        <g id="node39" class="node">
            <title>src/__tests__/ProfileEditor.test.js</title>
            <g id="a_node39">
                <a xlink:href="src/__tests__/ProfileEditor.test.js" xlink:title="ProfileEditor.test.js">
                    <path fill="#ffffcc" stroke="#000000" d="M128.5687,-347.3011C128.5687,-347.3011 49.9563,-347.3011 49.9563,-347.3011 46.856,-347.3011 43.7556,-344.2007 43.7556,-341.1004 43.7556,-341.1004 43.7556,-334.8996 43.7556,-334.8996 43.7556,-331.7993 46.856,-328.6989 49.9563,-328.6989 49.9563,-328.6989 128.5687,-328.6989 128.5687,-328.6989 131.669,-328.6989 134.7694,-331.7993 134.7694,-334.8996 134.7694,-334.8996 134.7694,-341.1004 134.7694,-341.1004 134.7694,-344.2007 131.669,-347.3011 128.5687,-347.3011"/>
                    <text text-anchor="middle" x="89.2625" y="-335.3" font-family="Helvetica,sans-Serif" font-size="9.00" fill="#000000">ProfileEditor.test.js</text>
                </a>
            </g>
        </g>
        <!-- src/__tests__/ProfileEditor.test.js&#45;&gt;src/ProfileEditor.js -->
        <g id="edge40" class="edge">
            <title>src/__tests__/ProfileEditor.test.js&#45;&gt;src/ProfileEditor.js</title>
            <path fill="none" stroke="#000000" stroke-width="2" stroke-opacity="0.466667" d="M134.8385,-340.9719C149.2446,-341.9113 165.1968,-342.9515 179.7372,-343.8996"/>
            <polygon fill="#000000" fill-opacity="0.466667" stroke="#000000" stroke-width="2" stroke-opacity="0.466667" points="179.8265,-347.4128 190.0331,-344.571 180.282,-340.4276 179.8265,-347.4128"/>
        </g>
        <!-- src/__tests__/ProjectPicker.test.js -->
        <g id="node40" class="node">
            <title>src/__tests__/ProjectPicker.test.js</title>
            <g id="a_node40">
                <a xlink:href="src/__tests__/ProjectPicker.test.js" xlink:title="ProjectPicker.test.js">
                    <path fill="#ffffcc" stroke="#000000" d="M130.5674,-533.3011C130.5674,-533.3011 47.9576,-533.3011 47.9576,-533.3011 44.8573,-533.3011 41.7569,-530.2007 41.7569,-527.1004 41.7569,-527.1004 41.7569,-520.8996 41.7569,-520.8996 41.7569,-517.7993 44.8573,-514.6989 47.9576,-514.6989 47.9576,-514.6989 130.5674,-514.6989 130.5674,-514.6989 133.6677,-514.6989 136.7681,-517.7993 136.7681,-520.8996 136.7681,-520.8996 136.7681,-527.1004 136.7681,-527.1004 136.7681,-530.2007 133.6677,-533.3011 130.5674,-533.3011"/>
                    <text text-anchor="middle" x="89.2625" y="-521.3" font-family="Helvetica,sans-Serif" font-size="9.00" fill="#000000">ProjectPicker.test.js</text>
                </a>
            </g>
        </g>
        <!-- src/__tests__/ProjectPicker.test.js&#45;&gt;src/ProjectPicker.js -->
        <g id="edge41" class="edge">
            <title>src/__tests__/ProjectPicker.test.js&#45;&gt;src/ProjectPicker.js</title>
            <path fill="none" stroke="#000000" stroke-width="2" stroke-opacity="0.466667" d="M137.1485,-524C150.2958,-524 164.5751,-524 177.8098,-524"/>
            <polygon fill="#000000" fill-opacity="0.466667" stroke="#000000" stroke-width="2" stroke-opacity="0.466667" points="178.1582,-527.5001 188.1581,-524 178.1581,-520.5001 178.1582,-527.5001"/>
        </g>
        <!-- src/__tests__/QuickResponse.test.js -->
        <g id="node41" class="node">
            <title>src/__tests__/QuickResponse.test.js</title>
            <g id="a_node41">
                <a xlink:href="src/__tests__/QuickResponse.test.js" xlink:title="QuickResponse.test.js">
                    <path fill="#ffffcc" stroke="#000000" d="M135.5814,-750.3011C135.5814,-750.3011 42.9436,-750.3011 42.9436,-750.3011 39.8433,-750.3011 36.7429,-747.2007 36.7429,-744.1004 36.7429,-744.1004 36.7429,-737.8996 36.7429,-737.8996 36.7429,-734.7993 39.8433,-731.6989 42.9436,-731.6989 42.9436,-731.6989 135.5814,-731.6989 135.5814,-731.6989 138.6817,-731.6989 141.7821,-734.7993 141.7821,-737.8996 141.7821,-737.8996 141.7821,-744.1004 141.7821,-744.1004 141.7821,-747.2007 138.6817,-750.3011 135.5814,-750.3011"/>
                    <text text-anchor="middle" x="89.2625" y="-738.3" font-family="Helvetica,sans-Serif" font-size="9.00" fill="#000000">QuickResponse.test.js</text>
                </a>
            </g>
        </g>
        <!-- src/__tests__/QuickResponse.test.js&#45;&gt;src/QuickResponse.js -->
        <g id="edge42" class="edge">
            <title>src/__tests__/QuickResponse.test.js&#45;&gt;src/QuickResponse.js</title>
            <path fill="none" stroke="#000000" stroke-width="2" stroke-opacity="0.466667" d="M141.9989,-744.1262C184.7731,-746.6619 244.8427,-750.2229 288.0243,-752.7827"/>
            <polygon fill="#000000" fill-opacity="0.466667" stroke="#000000" stroke-width="2" stroke-opacity="0.466667" points="287.8769,-756.28 298.0666,-753.378 288.2912,-749.2923 287.8769,-756.28"/>
        </g>
        <!-- src/__tests__/QuickResponseGroup.test.js -->
        <g id="node42" class="node">
            <title>src/__tests__/QuickResponseGroup.test.js</title>
            <g id="a_node42">
                <a xlink:href="src/__tests__/QuickResponseGroup.test.js" xlink:title="QuickResponseGroup.test.js">
                    <path fill="#ffffcc" stroke="#000000" d="M148.0877,-781.3011C148.0877,-781.3011 30.4373,-781.3011 30.4373,-781.3011 27.337,-781.3011 24.2366,-778.2007 24.2366,-775.1004 24.2366,-775.1004 24.2366,-768.8996 24.2366,-768.8996 24.2366,-765.7993 27.337,-762.6989 30.4373,-762.6989 30.4373,-762.6989 148.0877,-762.6989 148.0877,-762.6989 151.188,-762.6989 154.2884,-765.7993 154.2884,-768.8996 154.2884,-768.8996 154.2884,-775.1004 154.2884,-775.1004 154.2884,-778.2007 151.188,-781.3011 148.0877,-781.3011"/>
                    <text text-anchor="middle" x="89.2625" y="-769.3" font-family="Helvetica,sans-Serif" font-size="9.00" fill="#000000">QuickResponseGroup.test.js</text>
                </a>
            </g>
        </g>
        <!-- src/__tests__/QuickResponseGroup.test.js&#45;&gt;src/QuickResponseGroup.js -->
        <g id="edge43" class="edge">
            <title>src/__tests__/QuickResponseGroup.test.js&#45;&gt;src/QuickResponseGroup.js</title>
            <path fill="none" stroke="#000000" stroke-width="2" stroke-opacity="0.466667" d="M154.6357,-770.5791C156.456,-770.5395 158.2796,-770.4999 160.1016,-770.4603"/>
            <polygon fill="#000000" fill-opacity="0.466667" stroke="#000000" stroke-width="2" stroke-opacity="0.466667" points="160.5611,-773.9512 170.4826,-770.2346 160.4089,-766.9528 160.5611,-773.9512"/>
        </g>
        <!-- src/__tests__/SettingsPage.test.js -->
        <g id="node43" class="node">
            <title>src/__tests__/SettingsPage.test.js</title>
            <g id="a_node43">
                <a xlink:href="src/__tests__/SettingsPage.test.js" xlink:title="SettingsPage.test.js">
                    <path fill="#ffffcc" stroke="#000000" d="M130.5897,-595.3011C130.5897,-595.3011 47.9353,-595.3011 47.9353,-595.3011 44.835,-595.3011 41.7346,-592.2007 41.7346,-589.1004 41.7346,-589.1004 41.7346,-582.8996 41.7346,-582.8996 41.7346,-579.7993 44.835,-576.6989 47.9353,-576.6989 47.9353,-576.6989 130.5897,-576.6989 130.5897,-576.6989 133.69,-576.6989 136.7904,-579.7993 136.7904,-582.8996 136.7904,-582.8996 136.7904,-589.1004 136.7904,-589.1004 136.7904,-592.2007 133.69,-595.3011 130.5897,-595.3011"/>
                    <text text-anchor="middle" x="89.2625" y="-583.3" font-family="Helvetica,sans-Serif" font-size="9.00" fill="#000000">SettingsPage.test.js</text>
                </a>
            </g>
        </g>
        <!-- src/__tests__/SettingsPage.test.js&#45;&gt;src/SettingsPage.js -->
        <g id="edge44" class="edge">
            <title>src/__tests__/SettingsPage.test.js&#45;&gt;src/SettingsPage.js</title>
            <path fill="none" stroke="#000000" stroke-width="2" stroke-opacity="0.466667" d="M137.1485,-586C150.2958,-586 164.5751,-586 177.8098,-586"/>
            <polygon fill="#000000" fill-opacity="0.466667" stroke="#000000" stroke-width="2" stroke-opacity="0.466667" points="178.1582,-589.5001 188.1581,-586 178.1581,-582.5001 178.1582,-589.5001"/>
        </g>
        <!-- src/__tests__/SignIn.test.js -->
        <g id="node44" class="node">
            <title>src/__tests__/SignIn.test.js</title>
            <g id="a_node44">
                <a xlink:href="src/__tests__/SignIn.test.js" xlink:title="SignIn.test.js">
                    <path fill="#ffffcc" stroke="#000000" d="M116.5777,-409.3011C116.5777,-409.3011 61.9473,-409.3011 61.9473,-409.3011 58.8469,-409.3011 55.7466,-406.2007 55.7466,-403.1004 55.7466,-403.1004 55.7466,-396.8996 55.7466,-396.8996 55.7466,-393.7993 58.8469,-390.6989 61.9473,-390.6989 61.9473,-390.6989 116.5777,-390.6989 116.5777,-390.6989 119.6781,-390.6989 122.7784,-393.7993 122.7784,-396.8996 122.7784,-396.8996 122.7784,-403.1004 122.7784,-403.1004 122.7784,-406.2007 119.6781,-409.3011 116.5777,-409.3011"/>
                    <text text-anchor="middle" x="89.2625" y="-397.3" font-family="Helvetica,sans-Serif" font-size="9.00" fill="#000000">SignIn.test.js</text>
                </a>
            </g>
        </g>
        <!-- src/__tests__/SignIn.test.js&#45;&gt;src/SignIn.js -->
        <g id="edge45" class="edge">
            <title>src/__tests__/SignIn.test.js&#45;&gt;src/SignIn.js</title>
            <path fill="none" stroke="#000000" stroke-width="2" stroke-opacity="0.466667" d="M122.9466,-397.5818C175.7293,-393.4634 273.0722,-384.4143 284.0436,-373 304.4693,-351.7496 278.8658,-264.2026 297.0436,-241 299.5168,-237.8431 302.6594,-235.3077 306.1323,-233.2717"/>
            <polygon fill="#000000" fill-opacity="0.466667" stroke="#000000" stroke-width="2" stroke-opacity="0.466667" points="307.568,-236.4637 315.2524,-229.1698 304.6967,-230.0797 307.568,-236.4637"/>
        </g>
        <!-- src/__tests__/SignUp.test.js -->
        <g id="node45" class="node">
            <title>src/__tests__/SignUp.test.js</title>
            <g id="a_node45">
                <a xlink:href="src/__tests__/SignUp.test.js" xlink:title="SignUp.test.js">
                    <path fill="#ffffcc" stroke="#000000" d="M118.5737,-564.3011C118.5737,-564.3011 59.9513,-564.3011 59.9513,-564.3011 56.851,-564.3011 53.7506,-561.2007 53.7506,-558.1004 53.7506,-558.1004 53.7506,-551.8996 53.7506,-551.8996 53.7506,-548.7993 56.851,-545.6989 59.9513,-545.6989 59.9513,-545.6989 118.5737,-545.6989 118.5737,-545.6989 121.674,-545.6989 124.7744,-548.7993 124.7744,-551.8996 124.7744,-551.8996 124.7744,-558.1004 124.7744,-558.1004 124.7744,-561.2007 121.674,-564.3011 118.5737,-564.3011"/>
                    <text text-anchor="middle" x="89.2625" y="-552.3" font-family="Helvetica,sans-Serif" font-size="9.00" fill="#000000">SignUp.test.js</text>
                </a>
            </g>
        </g>
        <!-- src/__tests__/SignUp.test.js&#45;&gt;src/SignUp.js -->
        <g id="edge46" class="edge">
            <title>src/__tests__/SignUp.test.js&#45;&gt;src/SignUp.js</title>
            <path fill="none" stroke="#000000" stroke-width="2" stroke-opacity="0.466667" d="M124.9439,-557.3975C175.1115,-559.9138 262.7631,-560.9009 284.0436,-539 302.9635,-519.5286 285.0793,-319.3712 297.0436,-295 301.657,-285.6025 309.6676,-277.5526 317.6793,-271.2486"/>
            <polygon fill="#000000" fill-opacity="0.466667" stroke="#000000" stroke-width="2" stroke-opacity="0.466667" points="319.8243,-274.017 325.8864,-265.3278 315.7288,-268.3401 319.8243,-274.017"/>
        </g>
        <!-- src/__tests__/StarRating.test.js -->
        <g id="node46" class="node">
            <title>src/__tests__/StarRating.test.js</title>
            <g id="a_node46">
                <a xlink:href="src/__tests__/StarRating.test.js" xlink:title="StarRating.test.js">
                    <path fill="#ffffcc" stroke="#000000" d="M125.0748,-471.3011C125.0748,-471.3011 53.4502,-471.3011 53.4502,-471.3011 50.3498,-471.3011 47.2495,-468.2007 47.2495,-465.1004 47.2495,-465.1004 47.2495,-458.8996 47.2495,-458.8996 47.2495,-455.7993 50.3498,-452.6989 53.4502,-452.6989 53.4502,-452.6989 125.0748,-452.6989 125.0748,-452.6989 128.1752,-452.6989 131.2755,-455.7993 131.2755,-458.8996 131.2755,-458.8996 131.2755,-465.1004 131.2755,-465.1004 131.2755,-468.2007 128.1752,-471.3011 125.0748,-471.3011"/>
                    <text text-anchor="middle" x="89.2625" y="-459.3" font-family="Helvetica,sans-Serif" font-size="9.00" fill="#000000">StarRating.test.js</text>
                </a>
            </g>
        </g>
        <!-- src/__tests__/StarRating.test.js&#45;&gt;src/StarRating.js -->
        <g id="edge47" class="edge">
            <title>src/__tests__/StarRating.test.js&#45;&gt;src/StarRating.js</title>
            <path fill="none" stroke="#000000" stroke-width="2" stroke-opacity="0.466667" d="M131.317,-463.5122C172.2937,-463.3416 235.3597,-458.6196 284.0436,-435 302.2977,-426.1438 318.519,-409.4212 329.1783,-396.5468"/>
            <polygon fill="#000000" fill-opacity="0.466667" stroke="#000000" stroke-width="2" stroke-opacity="0.466667" points="332.169,-398.4075 335.6259,-388.3925 326.6781,-394.0659 332.169,-398.4075"/>
        </g>
        <!-- src/__tests__/Team.test.js -->
        <g id="node47" class="node">
            <title>src/__tests__/Team.test.js</title>
            <g id="a_node47">
                <a xlink:href="src/__tests__/Team.test.js" xlink:title="Team.test.js">
                    <path fill="#ffffcc" stroke="#000000" d="M115.5668,-719.3011C115.5668,-719.3011 62.9582,-719.3011 62.9582,-719.3011 59.8579,-719.3011 56.7575,-716.2007 56.7575,-713.1004 56.7575,-713.1004 56.7575,-706.8996 56.7575,-706.8996 56.7575,-703.7993 59.8579,-700.6989 62.9582,-700.6989 62.9582,-700.6989 115.5668,-700.6989 115.5668,-700.6989 118.6671,-700.6989 121.7675,-703.7993 121.7675,-706.8996 121.7675,-706.8996 121.7675,-713.1004 121.7675,-713.1004 121.7675,-716.2007 118.6671,-719.3011 115.5668,-719.3011"/>
                    <text text-anchor="middle" x="89.2625" y="-707.3" font-family="Helvetica,sans-Serif" font-size="9.00" fill="#000000">Team.test.js</text>
                </a>
            </g>
        </g>
        <!-- src/__tests__/Team.test.js&#45;&gt;src/Team.js -->
        <g id="edge48" class="edge">
            <title>src/__tests__/Team.test.js&#45;&gt;src/Team.js</title>
            <path fill="none" stroke="#000000" stroke-width="2" stroke-opacity="0.466667" d="M121.9717,-709.0521C142.2939,-708.4631 168.4873,-707.704 189.6671,-707.0902"/>
            <polygon fill="#000000" fill-opacity="0.466667" stroke="#000000" stroke-width="2" stroke-opacity="0.466667" points="190.0259,-710.5813 199.9203,-706.793 189.823,-703.5843 190.0259,-710.5813"/>
        </g>
        <!-- src/__tests__/Teammate.test.js -->
        <g id="node48" class="node">
            <title>src/__tests__/Teammate.test.js</title>
            <g id="a_node48">
                <a xlink:href="src/__tests__/Teammate.test.js" xlink:title="Teammate.test.js">
                    <path fill="#ffffcc" stroke="#000000" d="M125.5702,-688.3011C125.5702,-688.3011 52.9548,-688.3011 52.9548,-688.3011 49.8545,-688.3011 46.7541,-685.2007 46.7541,-682.1004 46.7541,-682.1004 46.7541,-675.8996 46.7541,-675.8996 46.7541,-672.7993 49.8545,-669.6989 52.9548,-669.6989 52.9548,-669.6989 125.5702,-669.6989 125.5702,-669.6989 128.6705,-669.6989 131.7709,-672.7993 131.7709,-675.8996 131.7709,-675.8996 131.7709,-682.1004 131.7709,-682.1004 131.7709,-685.2007 128.6705,-688.3011 125.5702,-688.3011"/>
                    <text text-anchor="middle" x="89.2625" y="-676.3" font-family="Helvetica,sans-Serif" font-size="9.00" fill="#000000">Teammate.test.js</text>
                </a>
            </g>
        </g>
        <!-- src/__tests__/Teammate.test.js&#45;&gt;src/Teammate.js -->
        <g id="edge49" class="edge">
            <title>src/__tests__/Teammate.test.js&#45;&gt;src/Teammate.js</title>
            <path fill="none" stroke="#000000" stroke-width="2" stroke-opacity="0.466667" d="M131.9003,-679C177.992,-679 251.1163,-679 297.8873,-679"/>
            <polygon fill="#000000" fill-opacity="0.466667" stroke="#000000" stroke-width="2" stroke-opacity="0.466667" points="298.0239,-682.5001 308.0239,-679 298.0238,-675.5001 298.0239,-682.5001"/>
        </g>
        <!-- src/__tests__/TimerSettings.test.js -->
        <g id="node49" class="node">
            <title>src/__tests__/TimerSettings.test.js</title>
            <g id="a_node49">
                <a xlink:href="src/__tests__/TimerSettings.test.js" xlink:title="TimerSettings.test.js">
                    <path fill="#ffffcc" stroke="#000000" d="M131.5688,-657.3011C131.5688,-657.3011 46.9562,-657.3011 46.9562,-657.3011 43.8558,-657.3011 40.7555,-654.2007 40.7555,-651.1004 40.7555,-651.1004 40.7555,-644.8996 40.7555,-644.8996 40.7555,-641.7993 43.8558,-638.6989 46.9562,-638.6989 46.9562,-638.6989 131.5688,-638.6989 131.5688,-638.6989 134.6692,-638.6989 137.7695,-641.7993 137.7695,-644.8996 137.7695,-644.8996 137.7695,-651.1004 137.7695,-651.1004 137.7695,-654.2007 134.6692,-657.3011 131.5688,-657.3011"/>
                    <text text-anchor="middle" x="89.2625" y="-645.3" font-family="Helvetica,sans-Serif" font-size="9.00" fill="#000000">TimerSettings.test.js</text>
                </a>
            </g>
        </g>
        <!-- src/__tests__/TimerSettings.test.js&#45;&gt;src/TimerSettings.js -->
        <g id="edge50" class="edge">
            <title>src/__tests__/TimerSettings.test.js&#45;&gt;src/TimerSettings.js</title>
            <path fill="none" stroke="#000000" stroke-width="2" stroke-opacity="0.466667" d="M133.0954,-638.6877C142.8008,-636.5532 153.0233,-634.2488 162.525,-632 216.7646,-619.1629 230.0508,-614.8383 284.0436,-601 287.9163,-600.0074 291.9334,-598.9763 295.9651,-597.9403"/>
            <polygon fill="#000000" fill-opacity="0.466667" stroke="#000000" stroke-width="2" stroke-opacity="0.466667" points="297.1298,-601.2548 305.943,-595.3744 295.3864,-594.4753 297.1298,-601.2548"/>
        </g>
        <!-- src/historyGridDummyData.js -->
        <g id="node50" class="node">
            <title>src/historyGridDummyData.js</title>
            <g id="a_node50">
                <a xlink:href="src/historyGridDummyData.js" xlink:title="historyGridDummyData.js">
                    <path fill="#ffffcc" stroke="#000000" d="M142.5557,-34.3011C142.5557,-34.3011 35.9693,-34.3011 35.9693,-34.3011 32.8689,-34.3011 29.7686,-31.2007 29.7686,-28.1004 29.7686,-28.1004 29.7686,-21.8996 29.7686,-21.8996 29.7686,-18.7993 32.8689,-15.6989 35.9693,-15.6989 35.9693,-15.6989 142.5557,-15.6989 142.5557,-15.6989 145.6561,-15.6989 148.7564,-18.7993 148.7564,-21.8996 148.7564,-21.8996 148.7564,-28.1004 148.7564,-28.1004 148.7564,-31.2007 145.6561,-34.3011 142.5557,-34.3011"/>
                    <text text-anchor="middle" x="89.2625" y="-22.3" font-family="Helvetica,sans-Serif" font-size="9.00" fill="#000000">historyGridDummyData.js</text>
                </a>
            </g>
        </g>
    </g>
</svg>